<svg width="326" height="40" viewBox="0 0 326 40" fill="none" xmlns="http://www.w3.org/2000/svg">
<mask id="path-1-outside-1_34_581" maskUnits="userSpaceOnUse" x="33" y="11" width="258" height="22" fill="black">
<rect fill="white" x="33" y="11" width="258" height="22"/>
<path d="M35.2 27L41.64 12.7H46.58L53.02 27H49.54L48.18 23.98H40.04L38.68 27H35.2ZM41.2 21.38H47.02L44.24 15.2H43.98L41.2 21.38ZM54.9227 27V12.7H57.8227V27H54.9227ZM60.6203 27V16.7H63.5203V27H60.6203ZM60.6003 15V12.74H63.5403V15H60.6003ZM71.598 27.1C69.8113 27.1 68.418 26.66 67.418 25.78C66.418 24.8867 65.918 23.58 65.918 21.86C65.918 20.1267 66.418 18.82 67.418 17.94C68.418 17.0467 69.8113 16.6 71.598 16.6H76.598C77.7713 16.6 78.6646 16.88 79.278 17.44C79.9046 17.9867 80.218 18.7733 80.218 19.8C80.218 21.8933 79.0113 22.94 76.598 22.94H69.038C69.318 24.18 70.1713 24.8 71.598 24.8H79.698V27.1H71.598ZM71.598 18.9C70.2246 18.9 69.378 19.48 69.058 20.64H76.458C76.7246 20.64 76.9313 20.56 77.078 20.4C77.238 20.24 77.318 20.02 77.318 19.74C77.318 19.18 77.0313 18.9 76.458 18.9H71.598ZM82.6211 27V16.7H91.6011C92.7744 16.7 93.6278 16.9933 94.1611 17.58C94.7078 18.1533 94.9811 18.9133 94.9811 19.86V27H92.0811V20.2C92.0811 19.4 91.6811 19 90.8811 19H85.5211V27H82.6211ZM110.606 27L104.166 12.7H107.646L112.946 24.5H113.206L118.506 12.7H121.986L115.546 27H110.606ZM127.553 27.1C125.766 27.1 124.373 26.66 123.373 25.78C122.373 24.8867 121.873 23.58 121.873 21.86C121.873 20.1267 122.373 18.82 123.373 17.94C124.373 17.0467 125.766 16.6 127.553 16.6H131.253C133.039 16.6 134.433 17.0467 135.433 17.94C136.433 18.82 136.933 20.1267 136.933 21.86C136.933 23.58 136.433 24.8867 135.433 25.78C134.433 26.66 133.039 27.1 131.253 27.1H127.553ZM127.553 24.8H131.253C132.119 24.8 132.779 24.56 133.233 24.08C133.699 23.6 133.933 22.86 133.933 21.86C133.933 20.8467 133.699 20.1 133.233 19.62C132.779 19.14 132.119 18.9 131.253 18.9H127.553C126.686 18.9 126.019 19.14 125.553 19.62C125.099 20.1 124.873 20.8467 124.873 21.86C124.873 22.86 125.099 23.6 125.553 24.08C126.019 24.56 126.686 24.8 127.553 24.8ZM139.338 27V16.7H142.238V27H139.338ZM139.318 15V12.74H142.258V15H139.318ZM150.315 27.1C148.528 27.1 147.135 26.66 146.135 25.78C145.135 24.8867 144.635 23.58 144.635 21.86C144.635 20.1267 145.135 18.82 146.135 17.94C147.135 17.0467 148.528 16.6 150.315 16.6H157.015V18.9H150.315C149.448 18.9 148.782 19.14 148.315 19.62C147.862 20.1 147.635 20.8467 147.635 21.86C147.635 22.86 147.862 23.6 148.315 24.08C148.782 24.56 149.448 24.8 150.315 24.8H157.215V27.1H150.315ZM164.587 27.1C162.8 27.1 161.407 26.66 160.407 25.78C159.407 24.8867 158.907 23.58 158.907 21.86C158.907 20.1267 159.407 18.82 160.407 17.94C161.407 17.0467 162.8 16.6 164.587 16.6H169.587C170.76 16.6 171.654 16.88 172.267 17.44C172.894 17.9867 173.207 18.7733 173.207 19.8C173.207 21.8933 172 22.94 169.587 22.94H162.027C162.307 24.18 163.16 24.8 164.587 24.8H172.687V27.1H164.587ZM164.587 18.9C163.214 18.9 162.367 19.48 162.047 20.64H169.447C169.714 20.64 169.92 20.56 170.067 20.4C170.227 20.24 170.307 20.02 170.307 19.74C170.307 19.18 170.02 18.9 169.447 18.9H164.587ZM190.862 27.1C188.222 27.1 186.202 26.4933 184.802 25.28C183.402 24.0533 182.702 22.24 182.702 19.84C182.702 17.4533 183.402 15.6467 184.802 14.42C186.202 13.1933 188.222 12.5867 190.862 12.6L198.062 12.64V15.2H191.082C189.349 15.2 188.062 15.5667 187.222 16.3C186.382 17.0333 185.962 18.2133 185.962 19.84C185.962 21.4667 186.382 22.6533 187.222 23.4C188.062 24.1333 189.349 24.5 191.082 24.5H198.262V27.1H190.862ZM200.56 27V12.7H203.46V16.7H209.54C210.713 16.7 211.567 16.9933 212.1 17.58C212.647 18.1533 212.92 18.9133 212.92 19.86V27H210.02V20.2C210.02 19.4 209.62 19 208.82 19H203.46V27H200.56ZM218.353 27C217.273 27 216.447 26.7267 215.873 26.18C215.3 25.6333 215.013 24.8533 215.013 23.84C215.013 22.84 215.3 22.0667 215.873 21.52C216.447 20.9733 217.273 20.7 218.353 20.7H226.033V20.22C226.033 19.4067 225.633 19 224.833 19H216.353V16.7H225.593C226.807 16.7 227.667 16.98 228.173 17.54C228.68 18.0867 228.933 18.86 228.933 19.86V27H218.353ZM218.873 24.7H226.033V23H218.873C218.62 23 218.42 23.08 218.273 23.24C218.14 23.3867 218.073 23.5867 218.073 23.84C218.073 24.0933 218.14 24.3 218.273 24.46C218.42 24.62 218.62 24.7 218.873 24.7ZM231.741 27V16.7H240.721C241.894 16.7 242.747 16.9933 243.281 17.58C243.827 18.1533 244.101 18.9133 244.101 19.86V27H241.201V20.2C241.201 19.4 240.801 19 240.001 19H234.641V27H231.741ZM249.234 31.5V29.2H255.274C256.074 29.2 256.474 28.7933 256.474 27.98V27H252.074C250.287 27 248.894 26.56 247.894 25.68C246.894 24.8 246.394 23.5267 246.394 21.86C246.394 20.18 246.894 18.9 247.894 18.02C248.894 17.14 250.287 16.7 252.074 16.7H259.374V28.34C259.374 29.2867 259.1 30.0467 258.554 30.62C258.007 31.2067 257.154 31.5 255.994 31.5H249.234ZM252.074 24.7H256.474V19H252.074C251.207 19 250.54 19.24 250.074 19.72C249.62 20.1867 249.394 20.9 249.394 21.86C249.394 22.8067 249.62 23.52 250.074 24C250.54 24.4667 251.207 24.7 252.074 24.7ZM267.459 27.1C265.672 27.1 264.279 26.66 263.279 25.78C262.279 24.8867 261.779 23.58 261.779 21.86C261.779 20.1267 262.279 18.82 263.279 17.94C264.279 17.0467 265.672 16.6 267.459 16.6H272.459C273.632 16.6 274.526 16.88 275.139 17.44C275.766 17.9867 276.079 18.7733 276.079 19.8C276.079 21.8933 274.872 22.94 272.459 22.94H264.899C265.179 24.18 266.032 24.8 267.459 24.8H275.559V27.1H267.459ZM267.459 18.9C266.086 18.9 265.239 19.48 264.919 20.64H272.319C272.586 20.64 272.792 20.56 272.939 20.4C273.099 20.24 273.179 20.02 273.179 19.74C273.179 19.18 272.892 18.9 272.319 18.9H267.459ZM278.482 27V16.7H286.362C287.522 16.7 288.375 16.9933 288.922 17.58C289.469 18.1533 289.742 18.9133 289.742 19.86V22H286.802V20.22C286.802 19.42 286.402 19.02 285.602 19.02H281.422V27H278.482Z"/>
</mask>
<path d="M35.2 27L41.64 12.7H46.58L53.02 27H49.54L48.18 23.98H40.04L38.68 27H35.2ZM41.2 21.38H47.02L44.24 15.2H43.98L41.2 21.38ZM54.9227 27V12.7H57.8227V27H54.9227ZM60.6203 27V16.7H63.5203V27H60.6203ZM60.6003 15V12.74H63.5403V15H60.6003ZM71.598 27.1C69.8113 27.1 68.418 26.66 67.418 25.78C66.418 24.8867 65.918 23.58 65.918 21.86C65.918 20.1267 66.418 18.82 67.418 17.94C68.418 17.0467 69.8113 16.6 71.598 16.6H76.598C77.7713 16.6 78.6646 16.88 79.278 17.44C79.9046 17.9867 80.218 18.7733 80.218 19.8C80.218 21.8933 79.0113 22.94 76.598 22.94H69.038C69.318 24.18 70.1713 24.8 71.598 24.8H79.698V27.1H71.598ZM71.598 18.9C70.2246 18.9 69.378 19.48 69.058 20.64H76.458C76.7246 20.64 76.9313 20.56 77.078 20.4C77.238 20.24 77.318 20.02 77.318 19.74C77.318 19.18 77.0313 18.9 76.458 18.9H71.598ZM82.6211 27V16.7H91.6011C92.7744 16.7 93.6278 16.9933 94.1611 17.58C94.7078 18.1533 94.9811 18.9133 94.9811 19.86V27H92.0811V20.2C92.0811 19.4 91.6811 19 90.8811 19H85.5211V27H82.6211ZM110.606 27L104.166 12.7H107.646L112.946 24.5H113.206L118.506 12.7H121.986L115.546 27H110.606ZM127.553 27.1C125.766 27.1 124.373 26.66 123.373 25.78C122.373 24.8867 121.873 23.58 121.873 21.86C121.873 20.1267 122.373 18.82 123.373 17.94C124.373 17.0467 125.766 16.6 127.553 16.6H131.253C133.039 16.6 134.433 17.0467 135.433 17.94C136.433 18.82 136.933 20.1267 136.933 21.86C136.933 23.58 136.433 24.8867 135.433 25.78C134.433 26.66 133.039 27.1 131.253 27.1H127.553ZM127.553 24.8H131.253C132.119 24.8 132.779 24.56 133.233 24.08C133.699 23.6 133.933 22.86 133.933 21.86C133.933 20.8467 133.699 20.1 133.233 19.62C132.779 19.14 132.119 18.9 131.253 18.9H127.553C126.686 18.9 126.019 19.14 125.553 19.62C125.099 20.1 124.873 20.8467 124.873 21.86C124.873 22.86 125.099 23.6 125.553 24.08C126.019 24.56 126.686 24.8 127.553 24.8ZM139.338 27V16.7H142.238V27H139.338ZM139.318 15V12.74H142.258V15H139.318ZM150.315 27.1C148.528 27.1 147.135 26.66 146.135 25.78C145.135 24.8867 144.635 23.58 144.635 21.86C144.635 20.1267 145.135 18.82 146.135 17.94C147.135 17.0467 148.528 16.6 150.315 16.6H157.015V18.9H150.315C149.448 18.9 148.782 19.14 148.315 19.62C147.862 20.1 147.635 20.8467 147.635 21.86C147.635 22.86 147.862 23.6 148.315 24.08C148.782 24.56 149.448 24.8 150.315 24.8H157.215V27.1H150.315ZM164.587 27.1C162.8 27.1 161.407 26.66 160.407 25.78C159.407 24.8867 158.907 23.58 158.907 21.86C158.907 20.1267 159.407 18.82 160.407 17.94C161.407 17.0467 162.8 16.6 164.587 16.6H169.587C170.76 16.6 171.654 16.88 172.267 17.44C172.894 17.9867 173.207 18.7733 173.207 19.8C173.207 21.8933 172 22.94 169.587 22.94H162.027C162.307 24.18 163.16 24.8 164.587 24.8H172.687V27.1H164.587ZM164.587 18.9C163.214 18.9 162.367 19.48 162.047 20.64H169.447C169.714 20.64 169.92 20.56 170.067 20.4C170.227 20.24 170.307 20.02 170.307 19.74C170.307 19.18 170.02 18.9 169.447 18.9H164.587ZM190.862 27.1C188.222 27.1 186.202 26.4933 184.802 25.28C183.402 24.0533 182.702 22.24 182.702 19.84C182.702 17.4533 183.402 15.6467 184.802 14.42C186.202 13.1933 188.222 12.5867 190.862 12.6L198.062 12.64V15.2H191.082C189.349 15.2 188.062 15.5667 187.222 16.3C186.382 17.0333 185.962 18.2133 185.962 19.84C185.962 21.4667 186.382 22.6533 187.222 23.4C188.062 24.1333 189.349 24.5 191.082 24.5H198.262V27.1H190.862ZM200.56 27V12.7H203.46V16.7H209.54C210.713 16.7 211.567 16.9933 212.1 17.58C212.647 18.1533 212.92 18.9133 212.92 19.86V27H210.02V20.2C210.02 19.4 209.62 19 208.82 19H203.46V27H200.56ZM218.353 27C217.273 27 216.447 26.7267 215.873 26.18C215.3 25.6333 215.013 24.8533 215.013 23.84C215.013 22.84 215.3 22.0667 215.873 21.52C216.447 20.9733 217.273 20.7 218.353 20.7H226.033V20.22C226.033 19.4067 225.633 19 224.833 19H216.353V16.7H225.593C226.807 16.7 227.667 16.98 228.173 17.54C228.68 18.0867 228.933 18.86 228.933 19.86V27H218.353ZM218.873 24.7H226.033V23H218.873C218.62 23 218.42 23.08 218.273 23.24C218.14 23.3867 218.073 23.5867 218.073 23.84C218.073 24.0933 218.14 24.3 218.273 24.46C218.42 24.62 218.62 24.7 218.873 24.7ZM231.741 27V16.7H240.721C241.894 16.7 242.747 16.9933 243.281 17.58C243.827 18.1533 244.101 18.9133 244.101 19.86V27H241.201V20.2C241.201 19.4 240.801 19 240.001 19H234.641V27H231.741ZM249.234 31.5V29.2H255.274C256.074 29.2 256.474 28.7933 256.474 27.98V27H252.074C250.287 27 248.894 26.56 247.894 25.68C246.894 24.8 246.394 23.5267 246.394 21.86C246.394 20.18 246.894 18.9 247.894 18.02C248.894 17.14 250.287 16.7 252.074 16.7H259.374V28.34C259.374 29.2867 259.1 30.0467 258.554 30.62C258.007 31.2067 257.154 31.5 255.994 31.5H249.234ZM252.074 24.7H256.474V19H252.074C251.207 19 250.54 19.24 250.074 19.72C249.62 20.1867 249.394 20.9 249.394 21.86C249.394 22.8067 249.62 23.52 250.074 24C250.54 24.4667 251.207 24.7 252.074 24.7ZM267.459 27.1C265.672 27.1 264.279 26.66 263.279 25.78C262.279 24.8867 261.779 23.58 261.779 21.86C261.779 20.1267 262.279 18.82 263.279 17.94C264.279 17.0467 265.672 16.6 267.459 16.6H272.459C273.632 16.6 274.526 16.88 275.139 17.44C275.766 17.9867 276.079 18.7733 276.079 19.8C276.079 21.8933 274.872 22.94 272.459 22.94H264.899C265.179 24.18 266.032 24.8 267.459 24.8H275.559V27.1H267.459ZM267.459 18.9C266.086 18.9 265.239 19.48 264.919 20.64H272.319C272.586 20.64 272.792 20.56 272.939 20.4C273.099 20.24 273.179 20.02 273.179 19.74C273.179 19.18 272.892 18.9 272.319 18.9H267.459ZM278.482 27V16.7H286.362C287.522 16.7 288.375 16.9933 288.922 17.58C289.469 18.1533 289.742 18.9133 289.742 19.86V22H286.802V20.22C286.802 19.42 286.402 19.02 285.602 19.02H281.422V27H278.482Z" fill="#FFE600"/>
<path d="M35.2 27L34.2882 26.5894L33.6529 28H35.2V27ZM41.64 12.7V11.7H40.9936L40.7282 12.2894L41.64 12.7ZM46.58 12.7L47.4918 12.2894L47.2264 11.7H46.58V12.7ZM53.02 27V28H54.5671L53.9318 26.5894L53.02 27ZM49.54 27L48.6282 27.4106L48.8936 28H49.54V27ZM48.18 23.98L49.0918 23.5694L48.8264 22.98H48.18V23.98ZM40.04 23.98V22.98H39.3936L39.1282 23.5694L40.04 23.98ZM38.68 27V28H39.3264L39.5918 27.4106L38.68 27ZM41.2 21.38L40.288 20.9698L39.6536 22.38H41.2V21.38ZM47.02 21.38V22.38H48.5664L47.932 20.9698L47.02 21.38ZM44.24 15.2L45.152 14.7898L44.8867 14.2H44.24V15.2ZM43.98 15.2V14.2H43.3333L43.068 14.7898L43.98 15.2ZM36.1118 27.4106L42.5518 13.1106L40.7282 12.2894L34.2882 26.5894L36.1118 27.4106ZM41.64 13.7H46.58V11.7H41.64V13.7ZM45.6682 13.1106L52.1082 27.4106L53.9318 26.5894L47.4918 12.2894L45.6682 13.1106ZM53.02 26H49.54V28H53.02V26ZM50.4518 26.5894L49.0918 23.5694L47.2682 24.3906L48.6282 27.4106L50.4518 26.5894ZM48.18 22.98H40.04V24.98H48.18V22.98ZM39.1282 23.5694L37.7682 26.5894L39.5918 27.4106L40.9518 24.3906L39.1282 23.5694ZM38.68 26H35.2V28H38.68V26ZM41.2 22.38H47.02V20.38H41.2V22.38ZM47.932 20.9698L45.152 14.7898L43.328 15.6102L46.108 21.7902L47.932 20.9698ZM44.24 14.2H43.98V16.2H44.24V14.2ZM43.068 14.7898L40.288 20.9698L42.112 21.7902L44.892 15.6102L43.068 14.7898ZM54.9227 27H53.9227V28H54.9227V27ZM54.9227 12.7V11.7H53.9227V12.7H54.9227ZM57.8227 12.7H58.8227V11.7H57.8227V12.7ZM57.8227 27V28H58.8227V27H57.8227ZM55.9227 27V12.7H53.9227V27H55.9227ZM54.9227 13.7H57.8227V11.7H54.9227V13.7ZM56.8227 12.7V27H58.8227V12.7H56.8227ZM57.8227 26H54.9227V28H57.8227V26ZM60.6203 27H59.6203V28H60.6203V27ZM60.6203 16.7V15.7H59.6203V16.7H60.6203ZM63.5203 16.7H64.5203V15.7H63.5203V16.7ZM63.5203 27V28H64.5203V27H63.5203ZM60.6003 15H59.6003V16H60.6003V15ZM60.6003 12.74V11.74H59.6003V12.74H60.6003ZM63.5403 12.74H64.5403V11.74H63.5403V12.74ZM63.5403 15V16H64.5403V15H63.5403ZM61.6203 27V16.7H59.6203V27H61.6203ZM60.6203 17.7H63.5203V15.7H60.6203V17.7ZM62.5203 16.7V27H64.5203V16.7H62.5203ZM63.5203 26H60.6203V28H63.5203V26ZM61.6003 15V12.74H59.6003V15H61.6003ZM60.6003 13.74H63.5403V11.74H60.6003V13.74ZM62.5403 12.74V15H64.5403V12.74H62.5403ZM63.5403 14H60.6003V16H63.5403V14ZM67.418 25.78L66.7517 26.5258L66.7573 26.5307L67.418 25.78ZM67.418 17.94L68.0786 18.6907L68.0842 18.6858L67.418 17.94ZM79.278 17.44L78.6037 18.1785L78.6121 18.1861L78.6206 18.1936L79.278 17.44ZM69.038 22.94V21.94H67.787L68.0625 23.1603L69.038 22.94ZM79.698 24.8H80.698V23.8H79.698V24.8ZM79.698 27.1V28.1H80.698V27.1H79.698ZM69.058 20.64L68.094 20.3741L67.7448 21.64H69.058V20.64ZM77.078 20.4L76.3709 19.6929L76.3555 19.7083L76.3408 19.7243L77.078 20.4ZM71.598 26.1C69.9705 26.1 68.8415 25.7007 68.0786 25.0293L66.7573 26.5307C67.9944 27.6193 69.6521 28.1 71.598 28.1V26.1ZM68.0842 25.0342C67.3531 24.3812 66.918 23.3811 66.918 21.86H64.918C64.918 23.7789 65.4828 25.3922 66.7518 26.5258L68.0842 25.0342ZM66.918 21.86C66.918 20.322 67.355 19.3275 68.0786 18.6907L66.7573 17.1893C65.481 18.3125 64.918 19.9314 64.918 21.86H66.918ZM68.0842 18.6858C68.8472 18.0041 69.974 17.6 71.598 17.6V15.6C69.6486 15.6 67.9887 16.0892 66.7518 17.1942L68.0842 18.6858ZM71.598 17.6H76.598V15.6H71.598V17.6ZM76.598 17.6C77.6246 17.6 78.2386 17.8451 78.6037 18.1785L79.9522 16.7015C79.0907 15.9149 77.918 15.6 76.598 15.6V17.6ZM78.6206 18.1936C78.9797 18.5068 79.218 18.9887 79.218 19.8H81.218C81.218 18.5579 80.8296 17.4665 79.9353 16.6864L78.6206 18.1936ZM79.218 19.8C79.218 20.6525 78.9789 21.121 78.6577 21.3996C78.3094 21.7017 77.6826 21.94 76.598 21.94V23.94C77.9267 23.94 79.1099 23.6549 79.9682 22.9104C80.8537 22.1423 81.218 21.0408 81.218 19.8H79.218ZM76.598 21.94H69.038V23.94H76.598V21.94ZM68.0625 23.1603C68.2445 23.9661 68.6386 24.6634 69.3002 25.144C69.9487 25.6152 70.7467 25.8 71.598 25.8V23.8C71.0225 23.8 70.6805 23.6748 70.4758 23.526C70.284 23.3866 70.1114 23.1539 70.0134 22.7197L68.0625 23.1603ZM71.598 25.8H79.698V23.8H71.598V25.8ZM78.698 24.8V27.1H80.698V24.8H78.698ZM79.698 26.1H71.598V28.1H79.698V26.1ZM71.598 17.9C70.7765 17.9 70.0054 18.0733 69.3678 18.51C68.7171 18.9558 68.3054 19.6078 68.094 20.3741L70.022 20.9059C70.1306 20.5122 70.3022 20.2942 70.4981 20.16C70.7072 20.0167 71.0461 19.9 71.598 19.9V17.9ZM69.058 21.64H76.458V19.64H69.058V21.64ZM76.458 21.64C76.9359 21.64 77.437 21.4883 77.8151 21.0757L76.3408 19.7243C76.3556 19.7081 76.3739 19.692 76.3948 19.6778C76.4157 19.6636 76.4356 19.6538 76.452 19.6474C76.4846 19.6348 76.4923 19.64 76.458 19.64V21.64ZM77.7851 21.1071C78.175 20.7171 78.318 20.2185 78.318 19.74H76.318C76.318 19.7857 76.3114 19.7919 76.3182 19.7733C76.3216 19.7638 76.3277 19.7502 76.3375 19.7348C76.3473 19.7192 76.3588 19.7049 76.3709 19.6929L77.7851 21.1071ZM78.318 19.74C78.318 19.2998 78.2038 18.7874 77.8017 18.3946C77.404 18.0061 76.893 17.9 76.458 17.9V19.9C76.523 19.9 76.5397 19.9083 76.5246 19.9034C76.505 19.897 76.4559 19.8758 76.4042 19.8254C76.3521 19.7745 76.3271 19.7227 76.3178 19.6955C76.3103 19.6733 76.318 19.6824 76.318 19.74H78.318ZM76.458 17.9H71.598V19.9H76.458V17.9ZM82.6211 27H81.6211V28H82.6211V27ZM82.6211 16.7V15.7H81.6211V16.7H82.6211ZM94.1611 17.58L93.4212 18.2527L93.4292 18.2615L93.4374 18.2701L94.1611 17.58ZM94.9811 27V28H95.9811V27H94.9811ZM92.0811 27H91.0811V28H92.0811V27ZM85.5211 19V18H84.5211V19H85.5211ZM85.5211 27V28H86.5211V27H85.5211ZM83.6211 27V16.7H81.6211V27H83.6211ZM82.6211 17.7H91.6011V15.7H82.6211V17.7ZM91.6011 17.7C92.629 17.7 93.1529 17.9576 93.4212 18.2527L94.901 16.9073C94.1026 16.0291 92.9198 15.7 91.6011 15.7V17.7ZM93.4374 18.2701C93.773 18.6221 93.9811 19.117 93.9811 19.86H95.9811C95.9811 18.7097 95.6425 17.6845 94.8848 16.8899L93.4374 18.2701ZM93.9811 19.86V27H95.9811V19.86H93.9811ZM94.9811 26H92.0811V28H94.9811V26ZM93.0811 27V20.2H91.0811V27H93.0811ZM93.0811 20.2C93.0811 19.6459 92.9419 19.0466 92.4882 18.5929C92.0345 18.1392 91.4352 18 90.8811 18V20C91.127 20 91.1277 20.0608 91.074 20.0071C91.0203 19.9534 91.0811 19.9541 91.0811 20.2H93.0811ZM90.8811 18H85.5211V20H90.8811V18ZM84.5211 19V27H86.5211V19H84.5211ZM85.5211 26H82.6211V28H85.5211V26ZM110.606 27L109.695 27.4106L109.96 28H110.606V27ZM104.166 12.7V11.7H102.619L103.255 13.1106L104.166 12.7ZM107.646 12.7L108.559 12.2903L108.293 11.7H107.646V12.7ZM112.946 24.5L112.034 24.9097L112.299 25.5H112.946V24.5ZM113.206 24.5V25.5H113.853L114.119 24.9097L113.206 24.5ZM118.506 12.7V11.7H117.859L117.594 12.2903L118.506 12.7ZM121.986 12.7L122.898 13.1106L123.533 11.7H121.986V12.7ZM115.546 27V28H116.193L116.458 27.4106L115.546 27ZM111.518 26.5894L105.078 12.2894L103.255 13.1106L109.695 27.4106L111.518 26.5894ZM104.166 13.7H107.646V11.7H104.166V13.7ZM106.734 13.1097L112.034 24.9097L113.859 24.0903L108.559 12.2903L106.734 13.1097ZM112.946 25.5H113.206V23.5H112.946V25.5ZM114.119 24.9097L119.419 13.1097L117.594 12.2903L112.294 24.0903L114.119 24.9097ZM118.506 13.7H121.986V11.7H118.506V13.7ZM121.075 12.2894L114.635 26.5894L116.458 27.4106L122.898 13.1106L121.075 12.2894ZM115.546 26H110.606V28H115.546V26ZM123.373 25.78L122.706 26.5258L122.712 26.5307L123.373 25.78ZM123.373 17.94L124.033 18.6907L124.039 18.6858L123.373 17.94ZM135.433 17.94L134.766 18.6858L134.772 18.6907L135.433 17.94ZM135.433 25.78L136.093 26.5307L136.099 26.5258L135.433 25.78ZM133.233 24.08L132.516 23.3829L132.511 23.3881L132.506 23.3934L133.233 24.08ZM133.233 19.62L132.506 20.3066L132.511 20.3119L132.516 20.3171L133.233 19.62ZM125.553 19.62L124.836 18.9229L124.831 18.9281L124.826 18.9334L125.553 19.62ZM125.553 24.08L124.826 24.7666L124.831 24.7719L124.836 24.7771L125.553 24.08ZM127.553 26.1C125.925 26.1 124.796 25.7007 124.033 25.0293L122.712 26.5307C123.949 27.6193 125.607 28.1 127.553 28.1V26.1ZM124.039 25.0342C123.308 24.3812 122.873 23.3811 122.873 21.86H120.873C120.873 23.7789 121.438 25.3922 122.706 26.5258L124.039 25.0342ZM122.873 21.86C122.873 20.322 123.31 19.3275 124.033 18.6907L122.712 17.1893C121.436 18.3125 120.873 19.9314 120.873 21.86H122.873ZM124.039 18.6858C124.802 18.0041 125.929 17.6 127.553 17.6V15.6C125.603 15.6 123.943 16.0892 122.706 17.1942L124.039 18.6858ZM127.553 17.6H131.253V15.6H127.553V17.6ZM131.253 17.6C132.877 17.6 134.003 18.0041 134.766 18.6858L136.099 17.1942C134.862 16.0892 133.202 15.6 131.253 15.6V17.6ZM134.772 18.6907C135.496 19.3275 135.933 20.322 135.933 21.86H137.933C137.933 19.9314 137.37 18.3125 136.093 17.1893L134.772 18.6907ZM135.933 21.86C135.933 23.3811 135.498 24.3812 134.766 25.0342L136.099 26.5258C137.368 25.3922 137.933 23.7789 137.933 21.86H135.933ZM134.772 25.0293C134.009 25.7007 132.88 26.1 131.253 26.1V28.1C133.199 28.1 134.856 27.6193 136.093 26.5307L134.772 25.0293ZM131.253 26.1H127.553V28.1H131.253V26.1ZM127.553 25.8H131.253V23.8H127.553V25.8ZM131.253 25.8C132.304 25.8 133.263 25.5039 133.96 24.7666L132.506 23.3934C132.295 23.6161 131.934 23.8 131.253 23.8V25.8ZM133.95 24.7771C134.67 24.0359 134.933 22.9936 134.933 21.86H132.933C132.933 22.7264 132.728 23.1641 132.516 23.3829L133.95 24.7771ZM134.933 21.86C134.933 20.7174 134.672 19.6662 133.95 18.9229L132.516 20.3171C132.726 20.5338 132.933 20.9759 132.933 21.86H134.933ZM133.96 18.9334C133.263 18.1961 132.304 17.9 131.253 17.9V19.9C131.934 19.9 132.295 20.0839 132.506 20.3066L133.96 18.9334ZM131.253 17.9H127.553V19.9H131.253V17.9ZM127.553 17.9C126.499 17.9 125.542 18.1967 124.836 18.9229L126.27 20.3171C126.497 20.0833 126.873 19.9 127.553 19.9V17.9ZM124.826 18.9334C124.123 19.677 123.873 20.7239 123.873 21.86H125.873C125.873 20.9694 126.075 20.523 126.28 20.3066L124.826 18.9334ZM123.873 21.86C123.873 22.9871 124.125 24.025 124.826 24.7666L126.28 23.3934C126.073 23.175 125.873 22.7329 125.873 21.86H123.873ZM124.836 24.7771C125.542 25.5033 126.499 25.8 127.553 25.8V23.8C126.873 23.8 126.497 23.6167 126.27 23.3829L124.836 24.7771ZM139.338 27H138.338V28H139.338V27ZM139.338 16.7V15.7H138.338V16.7H139.338ZM142.238 16.7H143.238V15.7H142.238V16.7ZM142.238 27V28H143.238V27H142.238ZM139.318 15H138.318V16H139.318V15ZM139.318 12.74V11.74H138.318V12.74H139.318ZM142.258 12.74H143.258V11.74H142.258V12.74ZM142.258 15V16H143.258V15H142.258ZM140.338 27V16.7H138.338V27H140.338ZM139.338 17.7H142.238V15.7H139.338V17.7ZM141.238 16.7V27H143.238V16.7H141.238ZM142.238 26H139.338V28H142.238V26ZM140.318 15V12.74H138.318V15H140.318ZM139.318 13.74H142.258V11.74H139.318V13.74ZM141.258 12.74V15H143.258V12.74H141.258ZM142.258 14H139.318V16H142.258V14ZM146.135 25.78L145.469 26.5258L145.475 26.5307L146.135 25.78ZM146.135 17.94L146.796 18.6907L146.801 18.6858L146.135 17.94ZM157.015 16.6H158.015V15.6H157.015V16.6ZM157.015 18.9V19.9H158.015V18.9H157.015ZM148.315 19.62L147.598 18.9229L147.593 18.9281L147.588 18.9334L148.315 19.62ZM148.315 24.08L147.588 24.7666L147.593 24.7719L147.598 24.7771L148.315 24.08ZM157.215 24.8H158.215V23.8H157.215V24.8ZM157.215 27.1V28.1H158.215V27.1H157.215ZM150.315 26.1C148.688 26.1 147.559 25.7007 146.796 25.0293L145.475 26.5307C146.712 27.6193 148.369 28.1 150.315 28.1V26.1ZM146.801 25.0342C146.07 24.3812 145.635 23.3811 145.635 21.86H143.635C143.635 23.7789 144.2 25.3922 145.469 26.5258L146.801 25.0342ZM145.635 21.86C145.635 20.322 146.072 19.3275 146.796 18.6907L145.475 17.1893C144.198 18.3125 143.635 19.9314 143.635 21.86H145.635ZM146.801 18.6858C147.564 18.0041 148.691 17.6 150.315 17.6V15.6C148.366 15.6 146.706 16.0892 145.469 17.1942L146.801 18.6858ZM150.315 17.6H157.015V15.6H150.315V17.6ZM156.015 16.6V18.9H158.015V16.6H156.015ZM157.015 17.9H150.315V19.9H157.015V17.9ZM150.315 17.9C149.262 17.9 148.304 18.1967 147.598 18.9229L149.032 20.3171C149.259 20.0833 149.635 19.9 150.315 19.9V17.9ZM147.588 18.9334C146.886 19.677 146.635 20.7239 146.635 21.86H148.635C148.635 20.9694 148.838 20.523 149.042 20.3066L147.588 18.9334ZM146.635 21.86C146.635 22.9871 146.888 24.025 147.588 24.7666L149.042 23.3934C148.836 23.175 148.635 22.7329 148.635 21.86H146.635ZM147.598 24.7771C148.304 25.5033 149.262 25.8 150.315 25.8V23.8C149.635 23.8 149.259 23.6167 149.032 23.3829L147.598 24.7771ZM150.315 25.8H157.215V23.8H150.315V25.8ZM156.215 24.8V27.1H158.215V24.8H156.215ZM157.215 26.1H150.315V28.1H157.215V26.1ZM160.407 25.78L159.741 26.5258L159.746 26.5307L160.407 25.78ZM160.407 17.94L161.068 18.6907L161.073 18.6858L160.407 17.94ZM172.267 17.44L171.593 18.1785L171.601 18.1861L171.61 18.1936L172.267 17.44ZM162.027 22.94V21.94H160.776L161.052 23.1603L162.027 22.94ZM172.687 24.8H173.687V23.8H172.687V24.8ZM172.687 27.1V28.1H173.687V27.1H172.687ZM162.047 20.64L161.083 20.3741L160.734 21.64H162.047V20.64ZM170.067 20.4L169.36 19.6929L169.345 19.7083L169.33 19.7243L170.067 20.4ZM164.587 26.1C162.96 26.1 161.831 25.7007 161.068 25.0293L159.746 26.5307C160.983 27.6193 162.641 28.1 164.587 28.1V26.1ZM161.073 25.0342C160.342 24.3812 159.907 23.3811 159.907 21.86H157.907C157.907 23.7789 158.472 25.3922 159.741 26.5258L161.073 25.0342ZM159.907 21.86C159.907 20.322 160.344 19.3275 161.068 18.6907L159.746 17.1893C158.47 18.3125 157.907 19.9314 157.907 21.86H159.907ZM161.073 18.6858C161.836 18.0041 162.963 17.6 164.587 17.6V15.6C162.638 15.6 160.978 16.0892 159.741 17.1942L161.073 18.6858ZM164.587 17.6H169.587V15.6H164.587V17.6ZM169.587 17.6C170.614 17.6 171.228 17.8451 171.593 18.1785L172.941 16.7015C172.08 15.9149 170.907 15.6 169.587 15.6V17.6ZM171.61 18.1936C171.969 18.5068 172.207 18.9887 172.207 19.8H174.207C174.207 18.5579 173.819 17.4665 172.924 16.6864L171.61 18.1936ZM172.207 19.8C172.207 20.6525 171.968 21.121 171.647 21.3996C171.298 21.7017 170.672 21.94 169.587 21.94V23.94C170.916 23.94 172.099 23.6549 172.957 22.9104C173.843 22.1423 174.207 21.0408 174.207 19.8H172.207ZM169.587 21.94H162.027V23.94H169.587V21.94ZM161.052 23.1603C161.234 23.9661 161.628 24.6634 162.289 25.144C162.938 25.6152 163.736 25.8 164.587 25.8V23.8C164.012 23.8 163.67 23.6748 163.465 23.526C163.273 23.3866 163.101 23.1539 163.002 22.7197L161.052 23.1603ZM164.587 25.8H172.687V23.8H164.587V25.8ZM171.687 24.8V27.1H173.687V24.8H171.687ZM172.687 26.1H164.587V28.1H172.687V26.1ZM164.587 17.9C163.766 17.9 162.994 18.0733 162.357 18.51C161.706 18.9558 161.294 19.6078 161.083 20.3741L163.011 20.9059C163.12 20.5122 163.291 20.2942 163.487 20.16C163.696 20.0167 164.035 19.9 164.587 19.9V17.9ZM162.047 21.64H169.447V19.64H162.047V21.64ZM169.447 21.64C169.925 21.64 170.426 21.4883 170.804 21.0757L169.33 19.7243C169.345 19.7081 169.363 19.692 169.384 19.6778C169.405 19.6636 169.425 19.6538 169.441 19.6474C169.474 19.6348 169.481 19.64 169.447 19.64V21.64ZM170.774 21.1071C171.164 20.7171 171.307 20.2185 171.307 19.74H169.307C169.307 19.7857 169.3 19.7919 169.307 19.7733C169.311 19.7638 169.317 19.7502 169.327 19.7348C169.336 19.7192 169.348 19.7049 169.36 19.6929L170.774 21.1071ZM171.307 19.74C171.307 19.2998 171.193 18.7874 170.791 18.3946C170.393 18.0061 169.882 17.9 169.447 17.9V19.9C169.512 19.9 169.529 19.9083 169.514 19.9034C169.494 19.897 169.445 19.8758 169.393 19.8254C169.341 19.7745 169.316 19.7227 169.307 19.6955C169.299 19.6733 169.307 19.6824 169.307 19.74H171.307ZM169.447 17.9H164.587V19.9H169.447V17.9ZM184.802 25.28L184.143 26.0321L184.147 26.0357L184.802 25.28ZM190.862 12.6L190.868 11.6L190.867 11.6L190.862 12.6ZM198.062 12.64H199.062V11.6455L198.068 11.64L198.062 12.64ZM198.062 15.2V16.2H199.062V15.2H198.062ZM187.222 16.3L187.88 17.0533L187.88 17.0533L187.222 16.3ZM187.222 23.4L186.558 24.1474L186.565 24.1533L187.222 23.4ZM198.262 24.5H199.262V23.5H198.262V24.5ZM198.262 27.1V28.1H199.262V27.1H198.262ZM190.862 26.1C188.362 26.1 186.611 25.5246 185.457 24.5243L184.147 26.0357C185.793 27.4621 188.083 28.1 190.862 28.1V26.1ZM185.461 24.5279C184.337 23.5428 183.702 22.0409 183.702 19.84H181.702C181.702 22.4391 182.468 24.5639 184.143 26.0321L185.461 24.5279ZM183.702 19.84C183.702 17.6545 184.336 16.1583 185.461 15.1721L184.143 13.6679C182.469 15.1351 181.702 17.2522 181.702 19.84H183.702ZM185.461 15.1721C186.614 14.1626 188.36 13.5874 190.857 13.6L190.867 11.6C188.085 11.586 185.791 12.2241 184.143 13.6679L185.461 15.1721ZM190.857 13.6L198.057 13.64L198.068 11.64L190.868 11.6L190.857 13.6ZM197.062 12.64V15.2H199.062V12.64H197.062ZM198.062 14.2H191.082V16.2H198.062V14.2ZM191.082 14.2C189.235 14.2 187.664 14.5865 186.565 15.5467L187.88 17.0533C188.46 16.5468 189.463 16.2 191.082 16.2V14.2ZM186.565 15.5467C185.423 16.5437 184.962 18.0599 184.962 19.84H186.962C186.962 18.3668 187.342 17.5229 187.88 17.0533L186.565 15.5467ZM184.962 19.84C184.962 21.6218 185.423 23.1388 186.558 24.1474L187.887 22.6526C187.341 22.1679 186.962 21.3115 186.962 19.84H184.962ZM186.565 24.1533C187.664 25.1135 189.235 25.5 191.082 25.5V23.5C189.463 23.5 188.46 23.1532 187.88 22.6467L186.565 24.1533ZM191.082 25.5H198.262V23.5H191.082V25.5ZM197.262 24.5V27.1H199.262V24.5H197.262ZM198.262 26.1H190.862V28.1H198.262V26.1ZM200.56 27H199.56V28H200.56V27ZM200.56 12.7V11.7H199.56V12.7H200.56ZM203.46 12.7H204.46V11.7H203.46V12.7ZM203.46 16.7H202.46V17.7H203.46V16.7ZM212.1 17.58L211.36 18.2527L211.368 18.2615L211.376 18.2701L212.1 17.58ZM212.92 27V28H213.92V27H212.92ZM210.02 27H209.02V28H210.02V27ZM203.46 19V18H202.46V19H203.46ZM203.46 27V28H204.46V27H203.46ZM201.56 27V12.7H199.56V27H201.56ZM200.56 13.7H203.46V11.7H200.56V13.7ZM202.46 12.7V16.7H204.46V12.7H202.46ZM203.46 17.7H209.54V15.7H203.46V17.7ZM209.54 17.7C210.568 17.7 211.092 17.9576 211.36 18.2527L212.84 16.9073C212.042 16.0291 210.859 15.7 209.54 15.7V17.7ZM211.376 18.2701C211.712 18.6221 211.92 19.117 211.92 19.86H213.92C213.92 18.7097 213.582 17.6845 212.824 16.8899L211.376 18.2701ZM211.92 19.86V27H213.92V19.86H211.92ZM212.92 26H210.02V28H212.92V26ZM211.02 27V20.2H209.02V27H211.02ZM211.02 20.2C211.02 19.6459 210.881 19.0466 210.427 18.5929C209.974 18.1392 209.374 18 208.82 18V20C209.066 20 209.067 20.0608 209.013 20.0071C208.959 19.9534 209.02 19.9541 209.02 20.2H211.02ZM208.82 18H203.46V20H208.82V18ZM202.46 19V27H204.46V19H202.46ZM203.46 26H200.56V28H203.46V26ZM215.873 26.18L215.183 26.9037L215.183 26.9037L215.873 26.18ZM215.873 21.52L215.183 20.7963L215.873 21.52ZM226.033 20.7V21.7H227.033V20.7H226.033ZM216.353 19H215.353V20H216.353V19ZM216.353 16.7V15.7H215.353V16.7H216.353ZM228.173 17.54L227.432 18.211L227.44 18.2198L228.173 17.54ZM228.933 27V28H229.933V27H228.933ZM226.033 24.7V25.7H227.033V24.7H226.033ZM226.033 23H227.033V22H226.033V23ZM218.273 23.24L217.536 22.5643L217.533 22.5673L218.273 23.24ZM218.273 24.46L217.505 25.1002L217.52 25.1183L217.536 25.1357L218.273 24.46ZM218.353 26C217.435 26 216.892 25.7694 216.563 25.4563L215.183 26.9037C216.001 27.6839 217.111 28 218.353 28V26ZM216.563 25.4563C216.24 25.1475 216.013 24.6605 216.013 23.84H214.013C214.013 25.0462 214.36 26.1191 215.183 26.9037L216.563 25.4563ZM216.013 23.84C216.013 23.0374 216.237 22.5549 216.563 22.2437L215.183 20.7963C214.363 21.5784 214.013 22.6426 214.013 23.84H216.013ZM216.563 22.2437C216.892 21.9306 217.435 21.7 218.353 21.7V19.7C217.111 19.7 216.001 20.0161 215.183 20.7963L216.563 22.2437ZM218.353 21.7H226.033V19.7H218.353V21.7ZM227.033 20.7V20.22H225.033V20.7H227.033ZM227.033 20.22C227.033 19.6633 226.896 19.0613 226.446 18.6038C225.993 18.1432 225.392 18 224.833 18V20C224.951 20 225.014 20.0154 225.037 20.0233C225.056 20.0296 225.042 20.0279 225.02 20.0062C224.97 19.9554 225.033 19.9634 225.033 20.22H227.033ZM224.833 18H216.353V20H224.833V18ZM217.353 19V16.7H215.353V19H217.353ZM216.353 17.7H225.593V15.7H216.353V17.7ZM225.593 17.7C226.691 17.7 227.204 17.9587 227.432 18.2109L228.915 16.8691C228.13 16.0013 226.922 15.7 225.593 15.7V17.7ZM227.44 18.2198C227.724 18.5259 227.933 19.0243 227.933 19.86H229.933C229.933 18.6957 229.636 17.6474 228.907 16.8602L227.44 18.2198ZM227.933 19.86V27H229.933V19.86H227.933ZM228.933 26H218.353V28H228.933V26ZM218.873 25.7H226.033V23.7H218.873V25.7ZM227.033 24.7V23H225.033V24.7H227.033ZM226.033 22H218.873V24H226.033V22ZM218.873 22C218.391 22 217.904 22.1626 217.536 22.5643L219.01 23.9157C218.983 23.9455 218.945 23.9723 218.905 23.9885C218.868 24.0033 218.852 24 218.873 24V22ZM217.533 22.5673C217.19 22.9449 217.073 23.4094 217.073 23.84H219.073C219.073 23.7998 219.079 23.7961 219.072 23.8162C219.068 23.8266 219.062 23.8418 219.052 23.8597C219.042 23.8778 219.028 23.8959 219.013 23.9127L217.533 22.5673ZM217.073 23.84C217.073 24.2747 217.191 24.7239 217.505 25.1002L219.041 23.8198C219.05 23.83 219.058 23.8412 219.064 23.8524C219.07 23.8636 219.073 23.8726 219.075 23.878C219.078 23.8888 219.073 23.8794 219.073 23.84H217.073ZM217.536 25.1357C217.904 25.5374 218.391 25.7 218.873 25.7V23.7C218.852 23.7 218.868 23.6967 218.905 23.7115C218.945 23.7277 218.983 23.7545 219.01 23.7843L217.536 25.1357ZM231.741 27H230.741V28H231.741V27ZM231.741 16.7V15.7H230.741V16.7H231.741ZM243.281 17.58L242.541 18.2527L242.549 18.2615L242.557 18.2701L243.281 17.58ZM244.101 27V28H245.101V27H244.101ZM241.201 27H240.201V28H241.201V27ZM234.641 19V18H233.641V19H234.641ZM234.641 27V28H235.641V27H234.641ZM232.741 27V16.7H230.741V27H232.741ZM231.741 17.7H240.721V15.7H231.741V17.7ZM240.721 17.7C241.749 17.7 242.272 17.9576 242.541 18.2527L244.021 16.9073C243.222 16.0291 242.039 15.7 240.721 15.7V17.7ZM242.557 18.2701C242.893 18.6221 243.101 19.117 243.101 19.86H245.101C245.101 18.7097 244.762 17.6845 244.004 16.8899L242.557 18.2701ZM243.101 19.86V27H245.101V19.86H243.101ZM244.101 26H241.201V28H244.101V26ZM242.201 27V20.2H240.201V27H242.201ZM242.201 20.2C242.201 19.6459 242.061 19.0466 241.608 18.5929C241.154 18.1392 240.555 18 240.001 18V20C240.246 20 240.247 20.0608 240.194 20.0071C240.14 19.9534 240.201 19.9541 240.201 20.2H242.201ZM240.001 18H234.641V20H240.001V18ZM233.641 19V27H235.641V19H233.641ZM234.641 26H231.741V28H234.641V26ZM249.234 31.5H248.234V32.5H249.234V31.5ZM249.234 29.2V28.2H248.234V29.2H249.234ZM256.474 27H257.474V26H256.474V27ZM247.894 25.68L248.554 24.9293L248.554 24.9293L247.894 25.68ZM247.894 18.02L248.554 18.7707L248.554 18.7707L247.894 18.02ZM259.374 16.7H260.374V15.7H259.374V16.7ZM258.554 30.62L257.83 29.9299L257.822 29.9383L258.554 30.62ZM256.474 24.7V25.7H257.474V24.7H256.474ZM256.474 19H257.474V18H256.474V19ZM250.074 19.72L249.357 19.0229L249.356 19.0232L250.074 19.72ZM250.074 24L249.347 24.6866L249.357 24.697L249.367 24.7071L250.074 24ZM250.234 31.5V29.2H248.234V31.5H250.234ZM249.234 30.2H255.274V28.2H249.234V30.2ZM255.274 30.2C255.832 30.2 256.434 30.0568 256.887 29.5962C257.337 29.1387 257.474 28.5367 257.474 27.98H255.474C255.474 28.2366 255.411 28.2446 255.461 28.1938C255.482 28.1721 255.496 28.1704 255.478 28.1767C255.454 28.1846 255.392 28.2 255.274 28.2V30.2ZM257.474 27.98V27H255.474V27.98H257.474ZM256.474 26H252.074V28H256.474V26ZM252.074 26C250.446 26 249.317 25.6007 248.554 24.9293L247.233 26.4307C248.47 27.5193 250.128 28 252.074 28V26ZM248.554 24.9293C247.822 24.2851 247.394 23.3171 247.394 21.86H245.394C245.394 23.7362 245.965 25.3149 247.233 26.4307L248.554 24.9293ZM247.394 21.86C247.394 20.3867 247.824 19.4134 248.554 18.7707L247.233 17.2693C245.963 18.3866 245.394 19.9733 245.394 21.86H247.394ZM248.554 18.7707C249.317 18.0993 250.446 17.7 252.074 17.7V15.7C250.128 15.7 248.47 16.1807 247.233 17.2693L248.554 18.7707ZM252.074 17.7H259.374V15.7H252.074V17.7ZM258.374 16.7V28.34H260.374V16.7H258.374ZM258.374 28.34C258.374 29.083 258.166 29.5779 257.83 29.9299L259.277 31.3101C260.035 30.5155 260.374 29.4903 260.374 28.34H258.374ZM257.822 29.9383C257.536 30.2454 257.002 30.5 255.994 30.5V32.5C257.306 32.5 258.478 32.1679 259.285 31.3017L257.822 29.9383ZM255.994 30.5H249.234V32.5H255.994V30.5ZM252.074 25.7H256.474V23.7H252.074V25.7ZM257.474 24.7V19H255.474V24.7H257.474ZM256.474 18H252.074V20H256.474V18ZM252.074 18C251.02 18 250.063 18.2967 249.357 19.0229L250.791 20.4171C251.018 20.1833 251.394 20 252.074 20V18ZM249.356 19.0232C248.651 19.749 248.394 20.7623 248.394 21.86H250.394C250.394 21.0377 250.589 20.6243 250.791 20.4168L249.356 19.0232ZM248.394 21.86C248.394 22.9515 248.655 23.9538 249.347 24.6866L250.801 23.3134C250.586 23.0862 250.394 22.6618 250.394 21.86H248.394ZM249.367 24.7071C250.074 25.4146 251.028 25.7 252.074 25.7V23.7C251.386 23.7 251.007 23.5187 250.781 23.2929L249.367 24.7071ZM263.279 25.78L262.613 26.5258L262.618 26.5307L263.279 25.78ZM263.279 17.94L263.94 18.6907L263.945 18.6858L263.279 17.94ZM275.139 17.44L274.465 18.1785L274.473 18.1861L274.482 18.1936L275.139 17.44ZM264.899 22.94V21.94H263.648L263.923 23.1603L264.899 22.94ZM275.559 24.8H276.559V23.8H275.559V24.8ZM275.559 27.1V28.1H276.559V27.1H275.559ZM264.919 20.64L263.955 20.3741L263.606 21.64H264.919V20.64ZM272.939 20.4L272.232 19.6929L272.216 19.7083L272.202 19.7243L272.939 20.4ZM267.459 26.1C265.831 26.1 264.702 25.7007 263.94 25.0293L262.618 26.5307C263.855 27.6193 265.513 28.1 267.459 28.1V26.1ZM263.945 25.0342C263.214 24.3812 262.779 23.3811 262.779 21.86H260.779C260.779 23.7789 261.344 25.3922 262.613 26.5258L263.945 25.0342ZM262.779 21.86C262.779 20.322 263.216 19.3275 263.94 18.6907L262.618 17.1893C261.342 18.3125 260.779 19.9314 260.779 21.86H262.779ZM263.945 18.6858C264.708 18.0041 265.835 17.6 267.459 17.6V15.6C265.509 15.6 263.85 16.0892 262.613 17.1942L263.945 18.6858ZM267.459 17.6H272.459V15.6H267.459V17.6ZM272.459 17.6C273.485 17.6 274.1 17.8451 274.465 18.1785L275.813 16.7015C274.952 15.9149 273.779 15.6 272.459 15.6V17.6ZM274.482 18.1936C274.841 18.5068 275.079 18.9887 275.079 19.8H277.079C277.079 18.5579 276.69 17.4665 275.796 16.6864L274.482 18.1936ZM275.079 19.8C275.079 20.6525 274.84 21.121 274.519 21.3996C274.17 21.7017 273.544 21.94 272.459 21.94V23.94C273.788 23.94 274.971 23.6549 275.829 22.9104C276.715 22.1423 277.079 21.0408 277.079 19.8H275.079ZM272.459 21.94H264.899V23.94H272.459V21.94ZM263.923 23.1603C264.105 23.9661 264.5 24.6634 265.161 25.144C265.81 25.6152 266.608 25.8 267.459 25.8V23.8C266.883 23.8 266.541 23.6748 266.337 23.526C266.145 23.3866 265.972 23.1539 265.874 22.7197L263.923 23.1603ZM267.459 25.8H275.559V23.8H267.459V25.8ZM274.559 24.8V27.1H276.559V24.8H274.559ZM275.559 26.1H267.459V28.1H275.559V26.1ZM267.459 17.9C266.637 17.9 265.866 18.0733 265.229 18.51C264.578 18.9558 264.166 19.6078 263.955 20.3741L265.883 20.9059C265.992 20.5122 266.163 20.2942 266.359 20.16C266.568 20.0167 266.907 19.9 267.459 19.9V17.9ZM264.919 21.64H272.319V19.64H264.919V21.64ZM272.319 21.64C272.797 21.64 273.298 21.4883 273.676 21.0757L272.202 19.7243C272.217 19.7081 272.235 19.692 272.256 19.6778C272.277 19.6636 272.296 19.6538 272.313 19.6474C272.346 19.6348 272.353 19.64 272.319 19.64V21.64ZM273.646 21.1071C274.036 20.7171 274.179 20.2185 274.179 19.74H272.179C272.179 19.7857 272.172 19.7919 272.179 19.7733C272.183 19.7638 272.189 19.7502 272.198 19.7348C272.208 19.7192 272.22 19.7049 272.232 19.6929L273.646 21.1071ZM274.179 19.74C274.179 19.2998 274.065 18.7874 273.663 18.3946C273.265 18.0061 272.754 17.9 272.319 17.9V19.9C272.384 19.9 272.401 19.9083 272.386 19.9034C272.366 19.897 272.317 19.8758 272.265 19.8254C272.213 19.7745 272.188 19.7227 272.179 19.6955C272.171 19.6733 272.179 19.6824 272.179 19.74H274.179ZM272.319 17.9H267.459V19.9H272.319V17.9ZM278.482 27H277.482V28H278.482V27ZM278.482 16.7V15.7H277.482V16.7H278.482ZM288.922 17.58L288.19 18.2618L288.198 18.2701L288.922 17.58ZM289.742 22V23H290.742V22H289.742ZM286.802 22H285.802V23H286.802V22ZM281.422 19.02V18.02H280.422V19.02H281.422ZM281.422 27V28H282.422V27H281.422ZM279.482 27V16.7H277.482V27H279.482ZM278.482 17.7H286.362V15.7H278.482V17.7ZM286.362 17.7C287.37 17.7 287.904 17.9546 288.19 18.2617L289.654 16.8983C288.847 16.0321 287.674 15.7 286.362 15.7V17.7ZM288.198 18.2701C288.534 18.6221 288.742 19.117 288.742 19.86H290.742C290.742 18.7097 290.403 17.6845 289.646 16.8899L288.198 18.2701ZM288.742 19.86V22H290.742V19.86H288.742ZM289.742 21H286.802V23H289.742V21ZM287.802 22V20.22H285.802V22H287.802ZM287.802 20.22C287.802 19.6659 287.663 19.0666 287.209 18.6129C286.755 18.1592 286.156 18.02 285.602 18.02V20.02C285.848 20.02 285.849 20.0808 285.795 20.0271C285.741 19.9734 285.802 19.9741 285.802 20.22H287.802ZM285.602 18.02H281.422V20.02H285.602V18.02ZM280.422 19.02V27H282.422V19.02H280.422ZM281.422 26H278.482V28H281.422V26Z" fill="#FF0000" fill-opacity="0.8" mask="url(#path-1-outside-1_34_581)"/>
</svg>
