<svg width="50" height="50" viewBox="0 0 50 50" fill="none" xmlns="http://www.w3.org/2000/svg">
<g clip-path="url(#clip0_37_744)">
<path fill-rule="evenodd" clip-rule="evenodd" d="M41.2249 11.7229C42.8437 10.975 44.7249 12.1479 44.9395 14.0438L44.9957 14.5646L45.1249 15.925L45.2603 17.6854L45.352 19.25L45.4062 20.4042L45.4478 21.6396L45.4812 22.9542L45.4978 24.3438V25.7667L45.4812 27.1146L45.4332 29.0042L45.3874 30.1708L45.3041 31.7688L45.1749 33.6021L45.0457 35.0708L44.9332 36.1479C44.7249 37.9521 42.9687 39.0063 41.3624 38.2688L40.0957 37.6646L39.4395 37.3375L38.3041 36.7542L37.4541 36.3L36.5332 35.7958L35.5457 35.2396L34.4978 34.6313L33.3895 33.9688L32.227 33.2521L30.7895 32.3375L29.4666 31.4625L28.2582 30.6354L27.1645 29.8646L26.6645 29.5021L26.5812 31.2938L26.4791 32.8667L26.3395 34.6063L26.2103 35.8979L26.1832 36.1479C25.9749 37.9521 24.2187 39.0063 22.6124 38.2688L21.3457 37.6646L20.6895 37.3375L19.5541 36.7542L18.7041 36.3L17.7832 35.7958L16.2791 34.9417L15.1999 34.3063C15.012 34.1944 14.8245 34.0819 14.6374 33.9688L13.477 33.2521L12.2687 32.4854L11.6957 32.1125L10.6062 31.3875L9.59575 30.6979L8.66658 30.0438L7.42908 29.1479L6.71241 28.6104L5.54158 27.7042L4.89991 27.1896C3.50408 26.0521 3.47075 23.8729 4.81241 22.7792L5.71241 22.0604L6.977 21.0917L7.74158 20.5271L8.5895 19.9146L10.0145 18.9167L11.0624 18.2083L12.1874 17.4729L13.3853 16.7104L14.5791 15.975L15.1562 15.6292L16.2666 14.9771L17.3145 14.3813L18.2937 13.8396L19.202 13.3521L20.7791 12.5396L22.0062 11.9417L22.4749 11.7229C24.0937 10.975 25.9749 12.1479 26.1895 14.0438L26.2832 14.9333L26.3895 16.0958L26.4978 17.5125L26.5978 19.1729L26.6562 20.4063L27.6812 19.6708C28.0416 19.4146 28.4228 19.15 28.8207 18.8792L30.0687 18.0396C30.7519 17.5879 31.4409 17.1448 32.1353 16.7104L33.3291 15.975L33.9062 15.6292L35.0166 14.9771L36.0645 14.3813L37.0437 13.8396L37.952 13.3521L39.5291 12.5396L40.7562 11.9417L41.2249 11.7229Z" fill="#FFE600"/>
<path d="M26.165 29.4789L26.0819 31.2659L25.9804 32.8305L25.8415 34.5614L25.7132 35.8441L25.7128 35.8482L25.6865 36.0906C25.6865 36.0911 25.6864 36.0916 25.6864 36.0921C25.5131 37.5845 24.0949 38.3968 22.8242 37.8158L21.5649 37.2151L20.9153 36.8914L19.7861 36.3113L18.9442 35.8614L18.9397 35.859L18.0267 35.3591L16.5294 34.5088L15.4557 33.8767C15.4554 33.8764 15.455 33.8762 15.4547 33.876C15.2688 33.7653 15.0833 33.654 14.8981 33.5421C14.8974 33.5417 14.8968 33.5413 14.8961 33.5409L13.7423 32.8283L12.5391 32.0648L11.9727 31.6962L11.9685 31.6935L10.8856 30.9729L9.8806 30.287L8.95716 29.6368L7.72576 28.7454L7.01547 28.2127L5.85103 27.3114L5.21435 26.8008C4.05105 25.8514 4.04739 24.05 5.12651 23.1682L6.02046 22.4543L7.27755 21.4913L8.03653 20.9308L8.87929 20.3221L10.2979 19.3286L11.3392 18.6247L12.4585 17.8931L13.6507 17.1342L14.8388 16.4023L15.4112 16.0592L16.5168 15.41L17.5591 14.8173L18.5329 14.2787L19.4347 13.7946L21.0031 12.9866L22.2214 12.393L22.6846 12.1768C22.6849 12.1767 22.6852 12.1766 22.6854 12.1764C23.9479 11.5939 25.5094 12.4903 25.6925 14.0983C25.6925 14.0988 25.6926 14.0994 25.6927 14.1L25.7856 14.9822L25.8912 16.1377L25.999 17.5466L26.0985 19.1997L26.1567 20.4299L26.2002 21.3488L26.9476 20.8125L27.9709 20.0783C27.9712 20.0781 27.9715 20.0779 27.9718 20.0777C28.3285 19.8241 28.7062 19.562 29.1011 19.2932C29.1014 19.293 29.1017 19.2927 29.1021 19.2925L30.3444 18.4567C30.345 18.4563 30.3456 18.4559 30.3462 18.4555C31.0249 18.0068 31.7092 17.5667 32.399 17.1353C32.3995 17.1349 32.4 17.1346 32.4005 17.1343L33.5887 16.4023L34.1594 16.0603L34.1632 16.0581L35.2667 15.41L35.2698 15.4082L36.3065 14.8188L36.3116 14.8159L37.2801 14.2801L37.2857 14.2771L38.1848 13.7946L39.7531 12.9866L40.9714 12.393L41.4346 12.1768C41.4349 12.1767 41.4352 12.1766 41.4354 12.1764C42.6979 11.5938 44.2597 12.4905 44.4425 14.0986C44.4426 14.0991 44.4426 14.0995 44.4427 14.1L44.498 14.6119L44.4986 14.6183L44.6267 15.968L44.7614 17.7192L44.8525 19.2734L44.8528 19.2792L44.9064 20.421L44.9067 20.4276L44.948 21.6523L44.9481 21.6564L44.9812 22.9602L44.9813 22.9668L44.9978 24.3438V24.3469V25.7636V25.7667L44.9813 27.1019L44.9812 27.1084L44.9336 28.9845L44.9334 28.9915L44.8881 30.1448L44.8878 30.1512L44.805 31.7381L44.6764 33.5627L44.548 35.0231L44.4365 36.0906C44.4364 36.0914 44.4363 36.0923 44.4362 36.0931C44.2625 37.5849 42.8447 38.3967 41.5743 37.8158C41.5732 37.8154 41.5721 37.8149 41.571 37.8144L40.3149 37.2151L39.668 36.8928L39.6625 36.89L38.5361 36.3113L37.6942 35.8614L37.6897 35.859L36.7786 35.3602L36.7734 35.3573L35.7968 34.8072L35.794 34.8056L34.7517 34.2005L33.649 33.5413L32.4925 32.8284L31.0616 31.918L29.7457 31.0476L28.5435 30.2247L27.4552 29.4578L26.958 29.0973L26.2081 28.5536L26.165 29.4789Z" stroke="#FF0000" stroke-opacity="0.8"/>
</g>
<defs>
<clipPath id="clip0_37_744">
<rect width="50" height="50" fill="white"/>
</clipPath>
</defs>
</svg>
